<svg id="Layer_1" data-name="Layer 1" xmlns="http://www.w3.org/2000/svg" viewBox="0 0 797.94 449.7"><defs><style>.cls-1{fill:#42c1c6;opacity:0.5;}</style></defs><title>bg-1-pattern</title><path class="cls-1" d="M619.14,1a238.85,238.85,0,0,1-26.35,28.62,204.21,204.21,0,0,1-40.11,29A205.6,205.6,0,0,1,488.25,81a250.89,250.89,0,0,1-25.83,3,345.19,345.19,0,0,1-35.09.3c-7.93-.27-15.84-1.06-23.74-1.92-26.37-2.84-52.28-8.13-78-14.22-21.68-5.12-43.2-10.86-64.8-16.3-18.41-4.65-36.86-9.11-55.59-12.29q-11.73-2-23.62-3a167.38,167.38,0,0,0-24.93-.32c-13.56.88-26.54,4-38.17,11.43A65.76,65.76,0,0,0,97.17,70.18a75.4,75.4,0,0,0-10,30.47,109.45,109.45,0,0,0,3.07,38.57,173.91,173.91,0,0,0,18.23,43.91,274.76,274.76,0,0,0,33.21,45.56,398.69,398.69,0,0,0,53,49.19,558.29,558.29,0,0,0,73.74,48.38A767.29,767.29,0,0,0,371,373.21,1003.14,1003.14,0,0,0,468.13,404c25.34,6.68,50.88,12.45,76.59,17.5q24,4.72,48.24,8.54c12,1.9,24,3.71,36,5.16,11.32,1.37,22.63,2.9,34,4.2,8.07.93,16.17,1.61,24.26,2.37,9.27.88,18.53,1.77,27.81,2.55,6.1.51,12.21.84,18.32,1.25,7.65.5,15.3,1,23,1.5,3.65.23,7.3.26,11,.52,5.83.41,11.69.49,17.53.72l13.14.57c0,.62-.35.75-.85.77-.92,0-1.83,0-2.75,0H3.52c-1.17,0-2.38.28-3.52-.26V.45A6,6,0,0,1,3,.2q306.57,0,613.12,0C617.08.23,618.5-.65,619.14,1Z"/></svg>