<svg id="Layer_1" data-name="Layer 1" xmlns="http://www.w3.org/2000/svg" viewBox="0 0 543.01 449.56"><defs><style>.cls-1{fill:#137196;opacity:0.5;}</style></defs><title>bg-2-pattern</title><path class="cls-1" d="M.16,0H541a.29.29,0,0,1,0,.39c-.89.75-2,.54-3,.61-4,.3-7.92.62-11.88,1s-7.73.63-11.6,1c-3.36.31-6.73.59-10.09.93-5.22.51-10.45,1-15.67,1.53-3.81.42-7.63.8-11.44,1.19-5.13.53-10.26,1.13-15.38,1.74-4.81.56-9.61,1.18-14.41,1.79q-8.57,1.1-17.11,2.31Q419,14,407.62,15.87q-12,2-24,4.19c-16.26,3.05-32.44,6.51-48.46,10.67a424.25,424.25,0,0,0-52.83,17C268,53.52,254.14,60.24,241.38,69a132.58,132.58,0,0,0-12.71,10,84.85,84.85,0,0,0-13.52,15.25,62.67,62.67,0,0,0-10.78,27.29,69.86,69.86,0,0,0-.42,13.55,78.38,78.38,0,0,0,3.85,19.44A144.66,144.66,0,0,0,224,187.89a270.69,270.69,0,0,0,23.74,31.34c4.9,5.68,10,11.16,15.17,16.59,3.6,3.78,7.24,7.51,11,11.13,5.51,5.34,11.08,10.63,16.76,15.8q8.93,8.12,18.05,16,8.49,7.37,17.21,14.48c6.76,5.53,13.54,11,20.41,16.41q10.56,8.31,21.26,16.44c18.92,14.4,38.16,28.36,57.55,42.12q15.31,10.88,30.78,21.54,19.69,13.62,39.53,27,22.72,15.38,45.58,30.55a7.21,7.21,0,0,1,1.53,1.15c.27.31.75.68.07,1.09-.51,0-1,0-1.51,0H1.93a5.92,5.92,0,0,1-1.78-.09A3.14,3.14,0,0,1,0,448Q0,224.73,0,1.48A3,3,0,0,1,.16,0Z" transform="translate(0)"/></svg>