<svg id="Layer_1" data-name="Layer 1" xmlns="http://www.w3.org/2000/svg" viewBox="0 0 543.16 449.32"><defs><style>.cls-1{fill:#1f75ba;opacity:0.5;}</style></defs><title>bg-3-pattern</title><path class="cls-1" d="M.16,0h543c0,1.07-.83,1.45-1.54,1.91-5.23,3.36-10.39,6.81-15.55,10.29-8.42,5.67-16.87,11.28-25.28,17q-14.49,9.78-28.93,19.64-20.12,13.82-40.09,27.83Q411.22,91.14,390.94,106q-13.8,10.17-27.44,20.53c-9.95,7.6-19.82,15.3-29.54,23.19-8.09,6.55-16.11,13.19-24,20-6.36,5.49-12.69,11-18.88,16.69-4.21,3.86-8.36,7.78-12.53,11.68-4.44,4.15-8.7,8.49-13,12.81-5.55,5.62-10.89,11.44-16.1,17.38-6.12,7-12,14.15-17.47,21.64a202.72,202.72,0,0,0-15.39,24.3,126,126,0,0,0-8.31,19.08,85,85,0,0,0-4.23,19.52,62.33,62.33,0,0,0,7.52,36.62,76.79,76.79,0,0,0,10.84,14.77c8.69,9.46,19.06,16.72,30.08,23.13a246.77,246.77,0,0,0,38.34,17.58c13.54,5.05,27.37,9.2,41.34,12.91,15.91,4.23,32,7.71,48.14,10.84,10.49,2,21,3.82,31.59,5.48s21.13,3.19,31.74,4.55c6.92.89,13.85,1.79,20.79,2.6,6.16.73,12.34,1.39,18.51,2,6.94.74,13.89,1.42,20.84,2.08,4.59.44,9.19.82,13.78,1.22,4.91.44,9.83.76,14.73,1.26a29.85,29.85,0,0,1,4.22.41c.44.11,1.26.07.7,1a15.14,15.14,0,0,1-1.65,0H1.93a5.92,5.92,0,0,1-1.78-.09A3.14,3.14,0,0,1,0,447.72Q0,224.6,0,1.48A3,3,0,0,1,.16,0Z" transform="translate(0)"/></svg>