<?xml version="1.0" encoding="utf-8"?>
<!-- Generator: Adobe Illustrator 23.0.0, SVG Export Plug-In . SVG Version: 6.00 Build 0)  -->
<svg version="1.1" id="Layer_1" xmlns="http://www.w3.org/2000/svg" xmlns:xlink="http://www.w3.org/1999/xlink" x="0px" y="0px"
	 viewBox="0 0 571 155" style="enable-background:new 0 0 571 155;" xml:space="preserve">
<style type="text/css">
	.st0{display:none;fill:url(#SVGID_1_);}
	.st1{fill:#FFFFFF;}
	.st2{fill:url(#SVGID_2_);}
	.st3{fill:url(#SVGID_3_);}
	.st4{fill:url(#SVGID_4_);}
	.st5{fill:url(#SVGID_5_);}
	.st6{fill:#231F20;}
	.st7{fill:url(#SVGID_6_);}
	.st8{fill:url(#SVGID_7_);}
	.st9{fill:url(#SVGID_8_);}
	.st10{enable-background:new    ;}
	.st11{fill:#BB4817;}
</style>
<linearGradient id="SVGID_1_" gradientUnits="userSpaceOnUse" x1="588.2307" y1="-143.6636" x2="606.8975" y2="-168.8303" gradientTransform="matrix(1 0 0 -1 0 156)">
	<stop  offset="0" style="stop-color:#B94503"/>
	<stop  offset="1" style="stop-color:#E86C00"/>
</linearGradient>
<path class="st0" d="M614.5,342.7c0,0-1.9-3-4.5-7.2c-0.5-2.5-1.6-5.4-3.4-8.7C596,306.8,587.2,303.5,582,304l3.5-9.2
	c0,0,1.7,0,4.3,0.9C590.6,296,612.2,305.1,614.5,342.7z"/>
<path class="st1" d="M607.5,406.8"/>
<g>
	
		<linearGradient id="SVGID_2_" gradientUnits="userSpaceOnUse" x1="122.6358" y1="159.7242" x2="91.399" y2="15.2019" gradientTransform="matrix(1 0 0 -1 0 156)">
		<stop  offset="0" style="stop-color:#B94503"/>
		<stop  offset="0.51" style="stop-color:#E86C00"/>
		<stop  offset="1" style="stop-color:#BD4803"/>
	</linearGradient>
	<path class="st2" d="M97.1,0.5l-2,0.2l-3.2,1.9l-0.2,6.8c14-1.5,25.2,35.6,24.8,69.9c-0.3,27.7-5.9,44.1-12.6,53.8
		c-11.9,17.2-24.2,7.7-24.2,7.7l-5.2,4.5l7.3,4.7l2.4-0.6c2.4,2,6.2,4.6,9.3,4c15.5-3.2,35.9-23.9,35.9-64.1
		C129.4,3.7,97.1,0.5,97.1,0.5z"/>
	
		<linearGradient id="SVGID_3_" gradientUnits="userSpaceOnUse" x1="69.9903" y1="146.7637" x2="47.8792" y2="6.5878" gradientTransform="matrix(1 0 0 -1 0 156)">
		<stop  offset="0" style="stop-color:#B94503"/>
		<stop  offset="1" style="stop-color:#E86C00"/>
	</linearGradient>
	<path class="st3" d="M84.1,76.6c0,20.3-4.2,48.6-22.7,61.4c0,0,0,0-0.1,0l0,0c-3,2-6,3.3-8.8,4c-0.7,0.1-1.5,0.1-2.3,0.2
		c-3.9,0.2-8.1,0.1-11.5-1.3l0.8-2.4l-0.8-0.3l-2.7-4l1.8-2.6c0,0,0.2,0.1,0.4,0.2c6.4,3.2,14.3,2,19.3-3.1
		c7.1-7.4,15.9-22.5,15.9-51.8c0-31-11.6-49.5-15.6-54.6c-5.1-6.5-10.5-8.9-14.5-10.3L49,6.5c0-0.3,0.1-0.7,0.3-0.7
		c0.1,0,0.4,0,0.9-0.1c0.7-0.1,1.8-0.2,3.1-0.1c0.8,0,1.4,0,1.4,0s0.1,0.1,0.3,0.2c0.1,0,0.1,0.1,0.2,0.1c1.8,1,8.1,5,14,14.6
		c0.1,0.2,0.2,0.4,0.4,0.6c0.2,0.3,0.3,0.5,0.5,0.8c0.2,0.3,0.3,0.6,0.5,0.9c0.6,1,1.1,2,1.7,3.1C78.1,37.4,84.1,54.5,84.1,76.6z"/>
	
		<linearGradient id="SVGID_4_" gradientUnits="userSpaceOnUse" x1="128.9299" y1="113.338" x2="148.3801" y2="113.338" gradientTransform="matrix(1 0 0 -1 0 156)">
		<stop  offset="0" style="stop-color:#FFA635"/>
		<stop  offset="1" style="stop-color:#FAE377"/>
	</linearGradient>
	<path class="st4" d="M146.7,38.3c3,5.6,1.9,12.1-2.5,14.5c-4.4,2.4-10.5-0.2-13.5-5.8c-3-5.6-1.9-12.1,2.5-14.5
		C137.6,30.1,143.6,32.7,146.7,38.3z"/>
	
		<linearGradient id="SVGID_5_" gradientUnits="userSpaceOnUse" x1="43.2897" y1="9.5262" x2="3.9427" y2="110.4258" gradientTransform="matrix(1 0 0 -1 0 156)">
		<stop  offset="0" style="stop-color:#FF9524"/>
		<stop  offset="1" style="stop-color:#FAE377"/>
	</linearGradient>
	<path class="st5" d="M44.1,136.4c-8.6-4.9-15.3-14.5-18.6-19.9c-5.8-9.3-9.1-18.4-11-26.8c0,0,0-0.1,0-0.1c-0.6-2.7-1-5.4-1.3-7.9
		c-1.5-14.5,1.3-27.8,4.5-35.3c2-4.7,5.2-5.9,5.2-5.9c-1.4-0.5-2.5-0.6-3.1-0.7h0l0,0c-0.3,0-0.5,0-0.5,0c-2.6,0-5.8,1.2-10.2,7.7
		c-0.5,0.8-1,1.7-1.5,2.5c0,0.1-0.1,0.1-0.1,0.1C4.1,57.2,2,64.2,1,75.5c0,0,0,0.1,0,0.1C0.8,79.8,0.8,84.5,1.5,89c0,0,0,0,0,0
		c0.7,4.4,1.8,8.8,3.2,12.9c0.6,1.7,1.3,3.5,2,5.3c4.8,11.2,12.1,21.1,21.2,28.8c4.6,3.6,13.6,8.9,24.5,6c2.8-0.7,5.8-2,8.8-4
		C55.1,140.5,49.2,139.3,44.1,136.4z"/>
	<path class="st6" d="M69,54.9L69,54.9C69,54.9,69,54.9,69,54.9C69,54.9,69,54.9,69,54.9z"/>
	
		<linearGradient id="SVGID_6_" gradientUnits="userSpaceOnUse" x1="77.119" y1="18.3663" x2="21.7256" y2="170.8025" gradientTransform="matrix(1 0 0 -1 0 156)">
		<stop  offset="0" style="stop-color:#FF9524"/>
		<stop  offset="1" style="stop-color:#FAE377"/>
	</linearGradient>
	<path class="st7" d="M98.5,149.4C98.5,149.4,98.5,149.4,98.5,149.4c-10.1,1-18-7.5-19.9-9.8c-9.4-11.5-20.7-25.3-27.6-54.9
		c-6-26-6-46.2-4.2-61.4c0,0,0,0,0,0c1.6-16.5,7.9-17.6,7.9-17.6c-3.2-1.5-6.9-1.4-9.9,0.3c0,0,0,0-0.1,0
		c-11.2,6.6-24.1,39.9-10,88.8c0,0,0,0.1,0.1,0.4c0,0.1,0,0.2,0.1,0.3c2.2,7,22.8,68.1,60.1,58c0,0,0,0,0,0
		c8.1-2.3,12.2-7.1,12.2-7.1C104.2,148.2,101.2,149.1,98.5,149.4z"/>
	
		<linearGradient id="SVGID_7_" gradientUnits="userSpaceOnUse" x1="82.312" y1="81.0991" x2="157" y2="81.0991" gradientTransform="matrix(1 0 0 -1 0 156)">
		<stop  offset="0" style="stop-color:#FFA635"/>
		<stop  offset="1" style="stop-color:#FAE377"/>
	</linearGradient>
	<path class="st8" d="M157,76.6c0,33.1-20.6,61.5-49.7,72.9c10.2-6.2,22.6-16.6,27.3-32.4c7.9-26.5-37.5-41.4-48.3-72.1
		c-5.1-14.4-4.6-25.3-2.7-32.9C87.8-1.7,97.1,0.5,97.1,0.5c-7.7,0.9-8.2,46.8,32.4,57.4c0,0,0,0,0,0c4.2,1.1,8.8,1.8,13.8,2
		c1.6,0,9.8-0.3,9.7-8.2c0,0,1.8,5.7,2.2,8C156.4,65.1,157,70.8,157,76.6z"/>
	
		<linearGradient id="SVGID_8_" gradientUnits="userSpaceOnUse" x1="137.0631" y1="40.2059" x2="52.0988" y2="139.7475" gradientTransform="matrix(1 0 0 -1 0 156)">
		<stop  offset="0" style="stop-color:#FF8135"/>
		<stop  offset="1" style="stop-color:#FAE377"/>
	</linearGradient>
	<path class="st9" d="M107.3,149.4c10.2-6.2,22.6-16.6,27.3-32.4c7.9-26.5-37.5-41.4-48.3-72.1c-5.1-14.4-4.6-25.3-2.7-32.9
		C87.8-1.7,97.1,0.5,97.1,0.5c-6.7,0.8-8,36,19,51.9c12.4,7.3,21.3,19.3,23.8,33.4C143.5,105.4,140.1,131.3,107.3,149.4z"/>
</g>
<g class="st10">
	<path class="st11" d="M253.1,94.5c-1.1,9-4.4,16-10,20.9c-5.6,4.9-13.1,7.3-22.3,7.3c-10.1,0-18.1-3.6-24.2-10.8
		c-6.1-7.2-9.1-16.9-9.1-29v-8.2c0-7.9,1.4-14.9,4.2-20.9c2.8-6,6.8-10.6,12-13.9c5.2-3.2,11.2-4.8,18-4.8c9.1,0,16.3,2.5,21.8,7.6
		c5.5,5.1,8.6,12.1,9.5,21h-11.3c-1-6.8-3.1-11.7-6.4-14.8c-3.3-3.1-7.8-4.6-13.7-4.6c-7.2,0-12.8,2.7-16.9,8
		c-4.1,5.3-6.1,12.9-6.1,22.7v8.3c0,9.3,1.9,16.6,5.8,22.1c3.9,5.5,9.3,8.2,16.2,8.2c6.2,0,11-1.4,14.4-4.2
		c3.3-2.8,5.6-7.8,6.6-14.8H253.1z"/>
	<path class="st11" d="M334.1,81.7c0,8.4-1.4,15.6-4.2,21.9c-2.8,6.2-6.8,11-11.9,14.3c-5.2,3.3-11.2,4.9-18,4.9
		c-6.7,0-12.7-1.6-17.9-4.9c-5.2-3.3-9.2-8-12.1-14.1c-2.9-6.1-4.3-13.2-4.4-21.2v-6.1c0-8.2,1.4-15.4,4.3-21.7
		c2.9-6.3,6.9-11.1,12.1-14.4c5.2-3.3,11.2-5,17.9-5c6.8,0,12.9,1.6,18.1,4.9c5.2,3.3,9.2,8.1,12,14.3c2.8,6.3,4.2,13.6,4.2,21.9
		V81.7z M322.9,76.2c0-10.1-2-17.9-6.1-23.3c-4.1-5.4-9.7-8.1-17-8.1c-7.1,0-12.7,2.7-16.8,8.1c-4.1,5.4-6.2,12.9-6.3,22.5v6.3
		c0,9.8,2.1,17.5,6.2,23.1c4.1,5.6,9.8,8.4,17,8.4c7.3,0,12.9-2.6,16.9-7.9c4-5.3,6-12.9,6.2-22.8V76.2z"/>
	<path class="st11" d="M396.8,99.2h-35.7l-8,22.3h-11.6L374,36.3h9.8l32.6,85.3h-11.5L396.8,99.2z M364.5,90h29l-14.5-39.9L364.5,90
		z"/>
	<path class="st11" d="M490,94.5c-1.1,9-4.4,16-10,20.9c-5.6,4.9-13.1,7.3-22.3,7.3c-10.1,0-18.1-3.6-24.2-10.8
		c-6.1-7.2-9.1-16.9-9.1-29v-8.2c0-7.9,1.4-14.9,4.2-20.9c2.8-6,6.8-10.6,12-13.9c5.2-3.2,11.2-4.8,18-4.8c9.1,0,16.3,2.5,21.8,7.6
		c5.5,5.1,8.6,12.1,9.5,21h-11.3c-1-6.8-3.1-11.7-6.4-14.8c-3.3-3.1-7.8-4.6-13.7-4.6c-7.2,0-12.8,2.7-16.9,8
		c-4.1,5.3-6.1,12.9-6.1,22.7v8.3c0,9.3,1.9,16.6,5.8,22.1c3.9,5.5,9.3,8.2,16.2,8.2c6.2,0,11-1.4,14.4-4.2
		c3.3-2.8,5.6-7.8,6.6-14.8H490z"/>
	<path class="st11" d="M570.9,121.6h-11.3V82.1h-43v39.4h-11.2V36.3h11.2v36.7h43V36.3h11.3V121.6z"/>
</g>
</svg>
